<svg aria-hidden="true" style="position: absolute; width: 0; height: 0; overflow: hidden;" version="1.1" xmlns="http://www.w3.org/2000/svg" xmlns:xlink="http://www.w3.org/1999/xlink">
  <defs>
    <symbol id="icon-facebook" viewBox="0 0 32 32">
      <path d="M19.573 1.368c-3.475 0.197-6.341 2.589-7.246 5.802l-0.014 0.056c-0.225 0.816-0.267 1.236-0.297 3.023l-0.031 1.743-1.472 0.017c-1.671 0.020-1.775 0.043-2.147 0.455-0.345 0.384-0.34 0.324-0.34 3.536s-0.005 3.152 0.34 3.536c0.372 0.413 0.475 0.435 2.152 0.455l1.479 0.019 0.015 4.808c0.015 4.751 0.016 4.812 0.127 5.049 0.135 0.291 0.467 0.601 0.748 0.7 0.165 0.059 0.788 0.073 3.113 0.073s2.948-0.015 3.113-0.073c0.281-0.099 0.613-0.409 0.748-0.7 0.111-0.237 0.112-0.299 0.127-5.049l0.015-4.809 1.479-0.017c1.376-0.016 1.495-0.025 1.719-0.131 0.288-0.136 0.552-0.401 0.663-0.668 0.168-0.405 1.429-5.563 1.432-5.859 0-0.006 0-0.013 0-0.021 0-0.378-0.166-0.717-0.428-0.949l-0.001-0.001c-0.384-0.345-0.516-0.363-2.821-0.363h-2.044v-2.66l2.147-0.017c2.047-0.015 2.157-0.021 2.387-0.128 0.291-0.135 0.601-0.467 0.7-0.748 0.059-0.165 0.073-0.788 0.073-3.113s-0.015-2.948-0.073-3.113c-0.099-0.281-0.409-0.613-0.7-0.748-0.231-0.108-0.327-0.112-2.453-0.117-0.215-0.002-0.47-0.003-0.724-0.003-0.627 0-1.252 0.006-1.876 0.017l0.094-0.001zM22.667 5.333v1.333l-1.347 0.001c-0.74 0-1.515 0.024-1.72 0.053-1.133 0.16-2.065 1.111-2.217 2.265-0.033 0.257-0.049 1.261-0.039 2.533 0.015 1.892 0.025 2.128 0.112 2.32 0.129 0.289 0.388 0.551 0.677 0.687 0.229 0.108 0.332 0.115 2.2 0.131 1.077 0.009 1.96 0.027 1.96 0.040s-0.147 0.611-0.325 1.327l-0.325 1.301-1.635 0.017c-1.536 0.016-1.649 0.024-1.875 0.131-0.299 0.147-0.534 0.385-0.674 0.678l-0.004 0.009c-0.089 0.2-0.097 0.524-0.111 5.027l-0.015 4.813h-2.661l-0.015-4.813c-0.013-4.503-0.021-4.827-0.111-5.027-0.144-0.301-0.379-0.539-0.669-0.683l-0.008-0.004c-0.223-0.105-0.344-0.115-1.72-0.131l-1.48-0.019v-2.648l1.48-0.019c1.376-0.016 1.497-0.025 1.72-0.131 0.289-0.137 0.548-0.399 0.676-0.687 0.087-0.192 0.099-0.477 0.128-2.827 0.036-2.793 0.033-2.767 0.331-3.577 0.591-1.604 2.064-2.899 3.747-3.292 0.559-0.131 0.521-0.129 2.279-0.137l1.64-0.007v1.333z"></path>
    </symbol>
    <symbol id="icon-icon-1" viewBox="0 0 21 32">
      <path d="M19.042 18.067l-17.21-17.21c-0.202-0.219-0.471-0.319-0.756-0.319-0.134 0-0.286 0.034-0.403 0.084-0.403 0.168-0.672 0.555-0.672 0.992v25.277c0 0.437 0.269 0.824 0.672 0.992 0.118 0.050 0.269 0.084 0.403 0.084 0.286 0 0.555-0.118 0.756-0.319l5.244-5.244 3.21 7.597c0.235 0.538 0.857 0.807 1.412 0.571l2.975-1.261c0.538-0.235 0.807-0.857 0.571-1.412l-3.378-8h6.42c0.437 0 0.824-0.269 0.992-0.672 0.168-0.387 0.084-0.857-0.235-1.16z"></path>
    </symbol>
    <symbol id="icon-icon-2" viewBox="0 0 41 32">
      <path d="M21.673 12.898l2.674 1.245 3.98-1.184v-2.775c0-4.714-3.98-8.49-8.735-8.49-4.735 0-8.735 3.755-8.735 8.429v12.653c0 1.163-0.939 2.082-2.082 2.082s-2.082-0.918-2.082-2.082v-5.347h-6.694c0 5.367 0 5.429 0 5.429 0 4.837 3.918 8.755 8.755 8.755 4.796 0 8.755-3.857 8.755-8.633v-12.49c0-1.143 0.939-2.082 2.082-2.082s2.082 0.939 2.082 2.082v2.408zM32.49 17.429v5.612c0 1.143-0.939 2.061-2.082 2.061s-2.082-0.918-2.082-2.061v-5.51l-3.98 1.184-2.674-1.245v5.469c0 4.796 3.939 8.674 8.755 8.674 4.837 0 8.755-3.918 8.755-8.755 0 0 0-0.061 0-5.429h-6.694z"></path>
    </symbol>
    <symbol id="icon-icon-3" viewBox="0 0 34 32">
      <path d="M17.067 30.172c0.305 0 0.61-0.114 0.838-0.343l11.867-11.428c0.171-0.171 4.362-4 4.362-8.571 0-5.581-3.41-8.914-9.105-8.914-3.333 0-6.457 2.629-7.962 4.114-1.505-1.486-4.629-4.114-7.962-4.114-5.695 0-9.105 3.333-9.105 8.914 0 4.571 4.191 8.4 4.343 8.533l11.886 11.467c0.229 0.229 0.533 0.343 0.838 0.343z"></path>
    </symbol>
    <symbol id="icon-icon-4" viewBox="0 0 26 32">
      <path d="M23.664 2.689h1.614c0.302 0 0.538-0.235 0.538-0.538v-1.076c0-0.303-0.235-0.538-0.538-0.538h-24.74c-0.303 0-0.538 0.235-0.538 0.538v1.076c0 0.303 0.235 0.538 0.538 0.538h1.613c0 6.219 2.975 10.723 6.269 12.908-3.294 2.185-6.269 6.689-6.269 12.908h-1.613c-0.303 0-0.538 0.235-0.538 0.538v1.076c0 0.302 0.235 0.538 0.538 0.538h24.74c0.302 0 0.538-0.235 0.538-0.538v-1.076c0-0.302-0.235-0.538-0.538-0.538h-1.614c0-6.219-2.975-10.723-6.269-12.908 3.294-2.185 6.269-6.689 6.269-12.908zM21.513 2.689c0 2.454-0.555 4.622-1.429 6.454h-14.353c-0.874-1.832-1.429-4-1.429-6.454h17.21zM20.555 23.126h-15.294c1.244-3.244 3.479-5.546 5.714-6.454h3.866c2.235 0.908 4.471 3.21 5.714 6.454z"></path>
    </symbol>
    <symbol id="icon-instagram" viewBox="0 0 32 32">
      <path d="M8.933 1.368c-2.256 0.117-4.247 1.156-5.622 2.743l-0.008 0.010c-0.856 0.988-1.48 2.2-1.772 3.536l-0.010 0.053c-0.175 0.845-0.193 1.787-0.173 8.823 0.017 6.213 0.028 7.011 0.108 7.436 0.357 1.916 1.252 3.504 2.661 4.724 0.897 0.786 1.986 1.375 3.188 1.685l0.054 0.012c0.947 0.252 0.875 0.249 8.64 0.249s7.693 0.003 8.64-0.249c1.256-0.323 2.346-0.911 3.252-1.705l-0.009 0.008c1.452-1.257 2.376-2.945 2.685-4.907 0.057-0.363 0.072-1.915 0.072-7.787s-0.015-7.424-0.072-7.787c-0.419-2.656-2.020-4.869-4.355-6.020-0.867-0.444-1.882-0.734-2.957-0.805l-0.023-0.001c-0.564-0.044-13.573-0.061-14.3-0.019zM23.669 4.085c1.053 0.217 1.893 0.647 2.644 1.355 0.784 0.739 1.247 1.529 1.564 2.667 0.091 0.327 0.096 0.777 0.096 7.893s-0.005 7.567-0.096 7.893c-0.317 1.137-0.78 1.928-1.564 2.667-0.677 0.639-1.3 0.984-2.34 1.297-0.371 0.112-0.421 0.112-7.787 0.129-8.092 0.019-7.736 0.029-8.633-0.284-1.537-0.563-2.725-1.759-3.263-3.265l-0.012-0.038c-0.288-0.844-0.279-0.559-0.279-8.4 0-7.897-0.012-7.56 0.297-8.447 0.564-1.546 1.773-2.739 3.292-3.27l0.038-0.011c0.82-0.272 0.536-0.263 8.336-0.268 6.471-0.004 7.341 0.005 7.707 0.081zM22.853 7.437c-0.28 0.103-0.693 0.537-0.768 0.807-0.149 0.54-0.041 0.965 0.341 1.34 0.329 0.32 0.593 0.415 1.045 0.375 0.691-0.063 1.165-0.588 1.165-1.292 0-0.005 0-0.011 0-0.016 0-0.505-0.285-0.943-0.702-1.163l-0.007-0.003c-0.232-0.12-0.808-0.145-1.075-0.047zM15.547 9.311c-1.204 0.115-2.428 0.56-3.353 1.22-2.868 2.047-3.641 6.089-1.724 9.003 1.68 2.549 4.767 3.652 7.637 2.728 2.313-0.745 4.048-2.741 4.512-5.195 0.099-0.519 0.085-1.748-0.025-2.313-0.277-1.415-0.856-2.516-1.844-3.503-0.907-0.927-2.090-1.58-3.416-1.826l-0.040-0.006c-0.449-0.085-1.379-0.143-1.747-0.108zM17.307 12.127c0.609 0.208 1.113 0.524 1.577 0.989 0.465 0.465 0.781 0.969 0.988 1.577 0.192 0.565 0.24 1.52 0.105 2.125-0.289 1.192-1.072 2.161-2.114 2.695l-0.023 0.011c-0.489 0.263-1.070 0.417-1.686 0.417-0.091 0-0.181-0.003-0.271-0.010l0.012 0.001c-1.771-0.080-3.152-1.155-3.689-2.867-0.107-0.339-0.125-0.511-0.125-1.145 0-0.639 0.017-0.8 0.124-1.116 0.368-1.097 1.041-1.915 1.979-2.399 0.721-0.373 1.117-0.461 1.977-0.441 0.617 0.015 0.781 0.039 1.147 0.163z"></path>
    </symbol>
    <symbol id="icon-mobile-screen" viewBox="0 0 21 32">
      <path d="M16.935 2.286h-13.299c-1.377 0-2.494 1.152-2.494 2.571v22.286c0 1.42 1.117 2.571 2.494 2.571h13.299c1.377 0 2.494-1.152 2.494-2.571v-22.286c0-1.42-1.117-2.571-2.494-2.571zM12.779 26.238c0 0.52-0.374 0.905-0.831 0.905h-3.371c-0.41 0-0.784-0.386-0.784-0.857s0.374-0.857 0.831-0.857h3.325c0.457 0 0.831 0.386 0.831 0.809zM16.104 22.857h-11.636v-17.143h11.636v17.143z"></path>
    </symbol>
    <symbol id="icon-path" viewBox="0 0 45 32">
      <path d="M42.17 0.638c-0.834-0.851-2.188-0.851-3.022 0l-25.606 26.102-9.843-10.033c-0.835-0.851-2.188-0.851-3.023 0s-0.835 2.23 0 3.081l11.354 11.574c0.834 0.851 2.189 0.85 3.023 0l27.117-27.643c0.835-0.851 0.835-2.23 0-3.081z"></path>
    </symbol>
    <symbol id="icon-triangle" viewBox="0 0 28 32">
      <path d="M26.088 12.891c2.441 1.354 2.441 4.864 0 6.218l-21.155 11.739c-2.37 1.315-5.281-0.399-5.281-3.109v-23.477c0-2.71 2.911-4.424 5.281-3.109l21.155 11.739z"></path>
    </symbol>
    <symbol id="icon-twitter" viewBox="0 0 32 32">
      <path d="M21.212 2.727c-0.511 0.049-0.901 0.137-1.559 0.351-1.872 0.609-3.387 1.951-4.265 3.776-0.401 0.835-0.581 1.524-0.668 2.553-0.027 0.319-0.063 0.593-0.079 0.611-0.041 0.041-1.012-0.083-1.601-0.205-2.427-0.503-4.813-1.787-6.515-3.507-0.479-0.497-0.935-1.029-1.359-1.585l-0.032-0.044c-0.13-0.171-0.278-0.318-0.444-0.444l-0.006-0.004c-0.201-0.133-0.269-0.148-0.685-0.148-0.415 0-0.483 0.015-0.684 0.148-0.145 0.103-0.269 0.222-0.374 0.356l-0.003 0.004c-0.273 0.376-0.723 1.744-1.011 3.071-0.941 4.345-0.283 8.259 1.911 11.328 0.907 1.269 2.413 2.692 3.683 3.475 0.204 0.127 0.372 0.243 0.372 0.257 0 0.016-0.283 0.14-0.627 0.276-1.756 0.697-3.175 0.98-5.213 1.041-1.157 0.035-1.275 0.060-1.6 0.344-0.552 0.485-0.563 1.368-0.024 1.907 0.284 0.285 2.073 1.155 3.357 1.633 2.232 0.829 4.324 1.229 6.773 1.291 4.181 0.105 7.888-1.011 11.247-3.385 3.872-2.739 6.531-7.279 7.255-12.385 0.16-1.137 0.22-1.931 0.229-3.067l0.007-1.013 0.405-0.507c1.056-1.32 1.768-2.724 2.168-4.271 0.121-0.471 0.129-0.563 0.077-0.82-0.141-0.679-0.68-1.081-1.38-1.031-0.335 0.024-0.404 0.052-0.892 0.361-0.763 0.484-1.409 0.837-2.053 1.124-0.825 0.365-0.743 0.363-1.135 0.039-0.976-0.804-2.396-1.379-3.795-1.535-0.543-0.061-0.811-0.060-1.481 0.005zM23.147 5.467c0.562 0.172 1.051 0.401 1.5 0.688l-0.024-0.015c0.141 0.096 0.464 0.375 0.716 0.617 0.683 0.659 0.987 0.729 1.892 0.439 0.281-0.091 0.521-0.156 0.532-0.145s-0.197 0.259-0.46 0.551c-0.264 0.293-0.528 0.623-0.587 0.733-0.121 0.229-0.127 0.351-0.075 1.745 0.105 2.875-0.656 6.124-2.025 8.64-0.509 0.898-1.024 1.665-1.589 2.39l0.033-0.044c-0.483 0.607-1.527 1.644-2.164 2.149-1.396 1.1-3.021 1.992-4.782 2.589l-0.114 0.034c-2.557 0.827-5.433 0.985-8.267 0.459-0.791-0.147-1.119-0.229-1.092-0.272 0.012-0.020 0.173-0.079 0.357-0.131 1.325-0.369 4.004-1.705 4.584-2.285 0.503-0.503 0.505-1.384 0.004-1.863-0.080-0.077-0.543-0.34-1.027-0.585-0.948-0.48-1.681-0.923-2.304-1.391-2.301-1.733-3.643-4.015-4.016-6.837-0.179-1.349-0.065-3.501 0.247-4.688l0.055-0.208 0.409 0.399c1.609 1.568 3.701 2.804 5.979 3.535 1.427 0.459 2.641 0.661 4.228 0.707l1.103 0.032 0.295-0.144c0.301-0.152 0.537-0.396 0.675-0.695l0.004-0.009c0.039-0.095 0.079-0.663 0.101-1.461 0.041-1.436 0.097-1.749 0.433-2.417 0.699-1.391 1.849-2.28 3.356-2.595 0.371-0.076 1.623-0.028 2.023 0.079z"></path>
    </symbol>
    <symbol id="icon-mobile-screen" viewBox="0 0 21 32">
      <path d="M16.935 2.286h-13.299c-1.377 0-2.494 1.152-2.494 2.571v22.286c0 1.42 1.117 2.571 2.494 2.571h13.299c1.377 0 2.494-1.152 2.494-2.571v-22.286c0-1.42-1.117-2.571-2.494-2.571zM12.779 26.238c0 0.52-0.374 0.905-0.831 0.905h-3.371c-0.41 0-0.784-0.386-0.784-0.857s0.374-0.857 0.831-0.857h3.325c0.457 0 0.831 0.386 0.831 0.809zM16.104 22.857h-11.636v-17.143h11.636v17.143z"></path>
    </symbol>
    <symbol id="icon-stars" viewBox="0 0 188 32">
      <path fill="#f3cd03" style="fill: var(--color1, #f3cd03)" d="M32.404 11.487c-0.102-0.296-0.29-0.556-0.541-0.749s-0.553-0.308-0.869-0.333l-9.261-0.725-4.008-8.736c-0.128-0.281-0.335-0.52-0.598-0.688s-0.569-0.257-0.882-0.257c-0.313-0-0.619 0.089-0.882 0.256s-0.471 0.406-0.599 0.687l-4.008 8.737-9.261 0.725c-0.311 0.024-0.609 0.136-0.857 0.323s-0.437 0.439-0.543 0.728c-0.106 0.289-0.125 0.602-0.055 0.902s0.226 0.573 0.449 0.787l6.844 6.57-2.421 10.321c-0.074 0.312-0.050 0.639 0.068 0.938s0.324 0.556 0.592 0.739c0.268 0.182 0.585 0.281 0.911 0.283s0.645-0.092 0.915-0.27l8.845-5.807 8.845 5.807c0.277 0.181 0.603 0.274 0.935 0.267s0.654-0.114 0.922-0.307c0.268-0.193 0.47-0.462 0.579-0.771s0.118-0.644 0.028-0.958l-2.971-10.238 7.369-6.53c0.482-0.429 0.66-1.097 0.452-1.704z"></path>
      <path fill="#f3cd03" style="fill: var(--color1, #f3cd03)" d="M71.393 11.487c-0.102-0.296-0.29-0.556-0.541-0.749s-0.553-0.308-0.87-0.333l-9.261-0.725-4.008-8.736c-0.128-0.281-0.335-0.52-0.598-0.688s-0.569-0.257-0.882-0.257c-0.313-0-0.619 0.089-0.882 0.256s-0.471 0.406-0.599 0.687l-4.008 8.737-9.261 0.725c-0.311 0.024-0.609 0.136-0.857 0.323s-0.436 0.439-0.543 0.728-0.125 0.602-0.055 0.902c0.070 0.3 0.226 0.573 0.449 0.787l6.844 6.57-2.421 10.321c-0.073 0.312-0.050 0.639 0.068 0.938s0.324 0.556 0.591 0.739c0.268 0.182 0.585 0.281 0.911 0.283s0.644-0.092 0.915-0.27l8.846-5.807 8.845 5.807c0.277 0.181 0.603 0.274 0.935 0.267s0.654-0.114 0.922-0.307c0.268-0.193 0.47-0.462 0.579-0.771s0.118-0.644 0.028-0.958l-2.971-10.238 7.369-6.53c0.483-0.429 0.66-1.097 0.452-1.704z"></path>
      <path fill="#f3cd03" style="fill: var(--color1, #f3cd03)" d="M110.376 11.487c-0.102-0.296-0.29-0.556-0.541-0.749s-0.553-0.308-0.87-0.333l-9.261-0.725-4.008-8.736c-0.128-0.281-0.335-0.52-0.598-0.688s-0.569-0.257-0.882-0.257c-0.313-0-0.619 0.089-0.882 0.256s-0.471 0.406-0.599 0.687l-4.008 8.737-9.261 0.725c-0.311 0.024-0.609 0.136-0.857 0.323s-0.437 0.439-0.543 0.728c-0.106 0.289-0.125 0.602-0.055 0.902s0.226 0.573 0.449 0.787l6.844 6.57-2.42 10.321c-0.073 0.312-0.050 0.639 0.068 0.938s0.324 0.556 0.592 0.739c0.268 0.182 0.585 0.281 0.911 0.283s0.644-0.092 0.915-0.27l8.846-5.807 8.845 5.807c0.277 0.181 0.603 0.274 0.935 0.267s0.654-0.114 0.922-0.307c0.268-0.193 0.471-0.462 0.579-0.771s0.118-0.644 0.028-0.958l-2.971-10.238 7.369-6.53c0.482-0.429 0.66-1.097 0.452-1.704z"></path>
      <path fill="#f3cd03" style="fill: var(--color1, #f3cd03)" d="M149.369 11.487c-0.102-0.296-0.29-0.556-0.541-0.749s-0.553-0.308-0.869-0.333l-9.261-0.725-4.008-8.736c-0.128-0.281-0.335-0.52-0.598-0.688s-0.569-0.257-0.882-0.257-0.619 0.089-0.882 0.256c-0.263 0.167-0.471 0.406-0.599 0.687l-4.008 8.737-9.261 0.725c-0.311 0.024-0.609 0.136-0.857 0.323s-0.437 0.439-0.543 0.728c-0.106 0.289-0.125 0.602-0.055 0.902s0.226 0.573 0.449 0.787l6.844 6.57-2.42 10.321c-0.074 0.312-0.050 0.639 0.068 0.938s0.324 0.556 0.592 0.739c0.268 0.182 0.585 0.281 0.911 0.283s0.645-0.092 0.915-0.27l8.845-5.807 8.845 5.807c0.277 0.181 0.603 0.274 0.935 0.267s0.654-0.114 0.922-0.307 0.47-0.462 0.579-0.771c0.109-0.309 0.118-0.644 0.028-0.958l-2.971-10.238 7.369-6.53c0.482-0.429 0.66-1.097 0.452-1.704z"></path>
      <path fill="#f3cd03" style="fill: var(--color1, #f3cd03)" d="M163.291 19.716l-2.42 10.321c-0.075 0.313-0.052 0.64 0.065 0.94s0.323 0.558 0.591 0.74c0.268 0.183 0.586 0.281 0.912 0.283s0.645-0.093 0.916-0.273l8.845-5.807 8.846 5.807c0.276 0.181 0.603 0.274 0.935 0.267s0.654-0.114 0.923-0.307c0.268-0.193 0.469-0.462 0.578-0.771s0.119-0.644 0.028-0.958l-2.971-10.238 7.369-6.53c0.235-0.209 0.404-0.482 0.484-0.785s0.069-0.622-0.032-0.918c-0.103-0.296-0.29-0.556-0.54-0.748s-0.553-0.308-0.869-0.332l-9.262-0.726-4.008-8.736c-0.128-0.281-0.335-0.52-0.598-0.688s-0.569-0.257-0.882-0.257c-0.313 0-0.619 0.089-0.882 0.257s-0.47 0.406-0.598 0.688l-4.008 8.736-9.261 0.725c-0.311 0.024-0.609 0.136-0.857 0.323s-0.437 0.439-0.543 0.728c-0.106 0.289-0.125 0.602-0.056 0.902s0.226 0.573 0.45 0.787l6.845 6.57zM167.925 12.796c0.29-0.023 0.568-0.121 0.806-0.286s0.426-0.39 0.545-0.651l2.923-6.368 2.923 6.368c0.119 0.261 0.308 0.486 0.545 0.651s0.516 0.264 0.806 0.286l6.453 0.504-5.314 4.709c-0.461 0.409-0.645 1.040-0.476 1.628l2.035 7.014-6.069-3.985c-0.266-0.176-0.58-0.27-0.901-0.27s-0.634 0.094-0.901 0.27l-6.342 4.164 1.706-7.272c0.063-0.267 0.054-0.546-0.024-0.81s-0.225-0.502-0.424-0.694l-4.935-4.738 6.644-0.521z"></path>
    </symbol>
    <symbol id="icon-menu" viewBox="0 0 29 32">
      <path d="M3.203 6.515c-0.465 0.121-0.935 0.593-1.075 1.078-0.226 0.789 0.261 1.639 1.076 1.876 0.212 0.062 1.697 0.069 11.346 0.059l11.102-0.012 0.269-0.127c1.291-0.605 1.152-2.455-0.216-2.861-0.209-0.062-1.669-0.070-11.274-0.066-7.437 0.003-11.098 0.022-11.228 0.055zM3.203 14.511c-0.465 0.121-0.935 0.593-1.075 1.078-0.226 0.789 0.261 1.639 1.076 1.876 0.212 0.061 1.697 0.069 11.346 0.058l11.102-0.012 0.269-0.126c1.291-0.606 1.152-2.456-0.216-2.861-0.209-0.062-1.669-0.070-11.274-0.066-7.437 0.003-11.098 0.021-11.228 0.055zM3.203 22.508c-0.465 0.12-0.935 0.593-1.075 1.078-0.226 0.788 0.261 1.638 1.076 1.876 0.212 0.061 1.697 0.069 11.346 0.058l11.102-0.012 0.269-0.126c1.291-0.606 1.152-2.456-0.216-2.861-0.209-0.062-1.669-0.071-11.274-0.067-7.437 0.004-11.098 0.022-11.228 0.056z"></path>
    </symbol>
  </defs>
</svg>